<?xml version="1.0" encoding="utf-8"?>
<!-- Generator: Adobe Illustrator 21.1.0, SVG Export Plug-In . SVG Version: 6.00 Build 0)  -->
<svg version="1.1" id="Layer_1" xmlns="http://www.w3.org/2000/svg" xmlns:xlink="http://www.w3.org/1999/xlink" x="0px" y="0px"
	 viewBox="0 0 425.8 213.5" style="enable-background:new 0 0 425.8 213.5;" xml:space="preserve">
<style type="text/css">
	.st0{fill:#FFFFFF;}
</style>
<g id="Layer_3">
	<path class="st0" d="M65.9,36.6l-20.9-8c-2.2-0.8-4.6,0.3-5.4,2.4l-9.3,24.2c-0.5,1.3-0.5,2.8,0.1,4.1s1.7,2.3,3,2.9l19.8,7.6
		c0.1,0,0.2,0.1,0.4,0.1c0.4,0,0.8-0.2,0.9-0.6l9.8-25.4c0.2-0.5-0.1-1.1-0.6-1.3c-1.1-0.4-1.7-1.7-1.3-2.8c0.2-0.5,0.6-1,1.1-1.2
		c0.5-0.2,1.1-0.3,1.7,0l0,0c0.5,0.2,1.1-0.1,1.3-0.6C66.7,37.4,66.4,36.8,65.9,36.6z M43.5,30.3c0.3,0,0.5,0,0.8,0.1l17.6,6.7
		c-0.6,0.5-1.1,1.1-1.4,1.8c-0.3,0.7-0.3,1.5-0.2,2.3l-17.6-6.7c-0.5-0.2-1-0.6-1.2-1.1s-0.3-1.1,0-1.7
		C41.8,30.8,42.7,30.3,43.5,30.3z M53,67.6l-18.8-7.2c-0.9-0.3-1.5-1-1.9-1.8c-0.4-0.8-0.4-1.8-0.1-2.6l8-20.9
		c0.5,0.6,1.1,1.1,1.8,1.4L62,44L53,67.6z"/>
	<path class="st0" d="M52.5,50.5L52,50.3c0.1-0.2,0.2-0.4,0.3-0.6c1-2.5-0.3-5.3-2.8-6.2s-5.3,0.3-6.2,2.8c-0.1,0.2-0.1,0.4-0.2,0.6
		l-0.5-0.2c-1.2-0.5-2.6,0.1-3.1,1.4c-0.5,1.2,0.1,2.6,1.4,3.1l9.8,3.8c0.3,0.1,0.6,0.2,0.9,0.2c1,0,1.9-0.6,2.3-1.6
		C54.4,52.4,53.8,51,52.5,50.5z M45.2,47c0.3-0.7,0.8-1.3,1.5-1.6s1.4-0.3,2.1-0.1c1.4,0.6,2.2,2.2,1.6,3.6
		c-0.1,0.2-0.2,0.4-0.3,0.6L45,47.6C45.1,47.4,45.1,47.2,45.2,47z M52,52.9c-0.1,0.2-0.3,0.3-0.5,0.2l-9.8-3.8
		c-0.2-0.1-0.3-0.3-0.2-0.5s0.3-0.3,0.5-0.2l9.8,3.8C52,52.5,52.1,52.7,52,52.9z"/>
	<path class="st0" d="M41.5,52.5c-0.5-0.2-1.1,0.1-1.3,0.6L39.5,55c-0.2,0.5,0.1,1.1,0.6,1.3c0.1,0,0.2,0.1,0.4,0.1
		c0.4,0,0.8-0.2,0.9-0.6l0.7-1.9C42.3,53.3,42,52.7,41.5,52.5z"/>
	<path class="st0" d="M49.6,55.6c-0.5-0.2-1.1,0.1-1.3,0.6l-0.7,1.9c-0.2,0.5,0.1,1.1,0.6,1.3c0.1,0,0.2,0.1,0.4,0.1
		c0.4,0,0.8-0.2,0.9-0.6l0.7-1.9C50.4,56.4,50.1,55.8,49.6,55.6z"/>
	<path class="st0" d="M45.5,54c-0.5-0.2-1.1,0.1-1.3,0.6L43,57.8c-0.2,0.5,0.1,1.1,0.6,1.3c0.1,0,0.2,0.1,0.4,0.1
		c0.4,0,0.8-0.2,0.9-0.6l1.2-3.1C46.3,54.8,46.1,54.2,45.5,54z"/>
	<path class="st0" d="M347.2,181.1c0-0.6-0.5-1-1-1c-1.2,0-2.2-0.9-2.2-2.1c0-0.6,0.2-1.1,0.6-1.6c0.4-0.4,0.9-0.7,1.5-0.7l0,0
		c0.5,0,1-0.5,1-1c0-0.6-0.5-1-1-1l-22.4,0.6c-2.3,0.1-4.1,2-4.1,4.3l0.7,26c0,1.4,0.6,2.8,1.7,3.8s2.4,1.5,3.9,1.5l21.2-0.6
		c0.1,0,0.2,0,0.4-0.1c0.4-0.2,0.6-0.5,0.6-1L347.2,181.1z M322.9,176.6c0.2-0.1,0.5-0.2,0.8-0.2l18.8-0.5c-0.4,0.7-0.6,1.4-0.5,2.2
		c0,0.8,0.3,1.5,0.7,2.2l-18.8,0.5c-0.6,0-1.1-0.2-1.6-0.6c-0.4-0.4-0.7-0.9-0.7-1.5C321.6,177.7,322.1,176.9,322.9,176.6z
		 M325.8,207.9c-0.9,0-1.8-0.3-2.4-0.9c-0.7-0.6-1-1.5-1.1-2.4l-0.6-22.4c0.7,0.4,1.4,0.6,2.2,0.6l21.4-0.6l0.7,25.2L325.8,207.9z"
		/>
	<path class="st0" d="M339,191.8h-0.5c0-0.2,0-0.4,0-0.6c-0.1-2.7-2.3-4.7-4.9-4.7c-2.6,0.1-4.7,2.3-4.7,4.9c0,0.2,0,0.4,0.1,0.6
		h-0.5c-1.3,0-2.4,1.2-2.3,2.5c0,1.3,1.2,2.4,2.5,2.3l10.5-0.3c0.3,0,0.6-0.1,0.9-0.2c0.9-0.4,1.5-1.3,1.5-2.3
		C341.5,192.8,340.3,191.7,339,191.8z M330.9,191.4c0-0.7,0.3-1.5,0.8-2s1.2-0.9,2-0.9c1.5,0,2.8,1.2,2.9,2.7c0,0.2,0,0.4-0.1,0.6
		L331,192C331,191.8,330.9,191.6,330.9,191.4z M339.1,194.6l-10.5,0.3c-0.2,0-0.4-0.2-0.4-0.4s0.2-0.4,0.4-0.4l10.5-0.3
		c0.2,0,0.4,0.2,0.4,0.4C339.5,194.4,339.3,194.6,339.1,194.6z"/>
	<path class="st0" d="M329.6,197.8c-0.6,0-1,0.5-1,1l0.1,2c0,0.6,0.5,1,1,1c0.1,0,0.2,0,0.4-0.1c0.4-0.2,0.6-0.5,0.6-1l-0.1-2
		C330.6,198.3,330.1,197.8,329.6,197.8z"/>
	<path class="st0" d="M338.3,197.6c-0.6,0-1,0.5-1,1l0.1,2c0,0.6,0.5,1,1,1c0.1,0,0.2,0,0.4-0.1c0.4-0.2,0.6-0.5,0.6-1l-0.1-2
		C339.3,198,338.8,197.6,338.3,197.6z"/>
	<path class="st0" d="M333.9,197.7c-0.6,0-1,0.5-1,1l0.1,3.4c0,0.6,0.5,1,1,1c0.1,0,0.2,0,0.4-0.1c0.4-0.2,0.6-0.5,0.6-1l-0.1-3.4
		C334.9,198.1,334.5,197.7,333.9,197.7z"/>
	<path class="st0" d="M209.4,131.1l-10.3-25.2c-0.2-0.5-0.8-0.8-1.3-0.5l0,0c-1.1,0.5-2.4-0.1-2.8-1.2c-0.2-0.5-0.2-1.1,0-1.7
		s0.6-1,1.2-1.2l0,0c0.5-0.2,0.8-0.8,0.5-1.3c-0.2-0.5-0.8-0.8-1.3-0.5l0,0l-20.7,8.5c-2.1,0.9-3.2,3.3-2.3,5.5l9.9,24
		c0.5,1.3,1.6,2.4,2.9,2.9c0.7,0.3,1.4,0.4,2.1,0.4c0.7,0,1.4-0.1,2.1-0.4l19.6-8C209.4,132.2,209.7,131.6,209.4,131.1z
		 M175.4,109.9l17.4-7.2c-0.1,0.8,0,1.5,0.3,2.2s0.8,1.3,1.4,1.8l-17.4,7.2c-0.5,0.2-1.1,0.2-1.7,0c-0.5-0.2-1-0.6-1.2-1.2
		C173.8,111.6,174.3,110.3,175.4,109.9z M188.6,138.6c-0.8,0.3-1.8,0.3-2.6,0c-0.8-0.4-1.5-1-1.8-1.9l-8.5-20.7
		c0.2,0,0.4,0.1,0.7,0.1c0.5,0,1.1-0.1,1.6-0.3l19.8-8.1l9.6,23.3L188.6,138.6z"/>
	<path class="st0" d="M195.2,118.8l-0.4,0.2c-0.1-0.2-0.1-0.4-0.2-0.6c-0.5-1.2-1.4-2.1-2.6-2.6c-1.2-0.5-2.5-0.5-3.7,0
		c-2.5,1-3.6,3.8-2.6,6.3c0.1,0.2,0.2,0.4,0.3,0.6l-0.4,0.2c-0.6,0.2-1.1,0.7-1.3,1.3c-0.2,0.6-0.3,1.3,0,1.9
		c0.2,0.6,0.7,1.1,1.3,1.3c0.3,0.1,0.6,0.2,0.9,0.2c0.3,0,0.6-0.1,0.9-0.2l9.7-4l0,0c1.2-0.5,1.8-1.9,1.3-3.2
		C197.8,118.9,196.4,118.3,195.2,118.8z M187.5,121.3c-0.3-0.7-0.3-1.5,0-2.1c0.3-0.7,0.8-1.2,1.5-1.5s1.5-0.3,2.1,0
		c0.7,0.3,1.2,0.8,1.5,1.5c0.1,0.2,0.1,0.4,0.2,0.6l-5,2.1C187.7,121.7,187.6,121.5,187.5,121.3z M196.3,121.4l-9.7,4
		c-0.1,0.1-0.3,0-0.3,0c-0.1,0-0.2-0.1-0.2-0.2s0-0.3,0-0.3c0-0.1,0.1-0.2,0.2-0.2l9.7-4c0.1,0,0.1,0,0.2,0c0.2,0,0.3,0.1,0.4,0.3
		C196.6,121.1,196.5,121.4,196.3,121.4z"/>
	<path class="st0" d="M189.8,128.4c-0.2-0.5-0.8-0.8-1.3-0.5c-0.5,0.2-0.8,0.8-0.5,1.3l0.8,1.9c0.2,0.4,0.5,0.6,0.9,0.6
		c0.1,0,0.3,0,0.4-0.1c0.5-0.2,0.8-0.8,0.5-1.3L189.8,128.4z"/>
	<path class="st0" d="M196.5,124.5c-0.5,0.2-0.8,0.8-0.5,1.3l0.8,1.9c0.2,0.4,0.5,0.6,0.9,0.6c0.1,0,0.3,0,0.4-0.1
		c0.5-0.2,0.8-0.8,0.5-1.3l-0.8-1.9C197.6,124.6,197.1,124.3,196.5,124.5z"/>
	<path class="st0" d="M193.8,126.7c-0.2-0.5-0.8-0.8-1.3-0.5c-0.5,0.2-0.8,0.8-0.5,1.3l1.3,3.1c0.2,0.4,0.5,0.6,0.9,0.6
		c0.1,0,0.3,0,0.4-0.1c0.5-0.2,0.8-0.8,0.5-1.3L193.8,126.7z"/>
	<path class="st0" d="M126.2,5.9c-0.1-0.3-0.3-0.6-0.6-0.7c-0.3-0.1-0.7,0-0.9,0.2l-19.6,14.8H105l-3.2,1c-0.5,0.2-0.8,0.7-0.7,1.2
		l1.7,5.6c0.1,0.3,0.3,0.5,0.5,0.6c0.1,0.1,0.3,0.1,0.5,0.1c0.1,0,0.2,0,0.3,0l3.2-1c0,0,0,0,0.1,0l3.9,0.2l-0.1,1.6
		c0,0.3,0.1,0.5,0.2,0.7c0.2,0.2,0.4,0.3,0.7,0.3l5.9,0.4c0,0,0,0,0.1,0c0.2,0,0.5-0.1,0.7-0.3c0.2-0.2,0.3-0.4,0.3-0.7l0.1-1.7
		l12.8,0.7c0,0,0,0,0.1,0c0.3,0,0.6-0.1,0.8-0.4s0.3-0.6,0.2-0.9L126.2,5.9z M117,28.9l-3.9-0.2v-0.5l3.9,0.2V28.9z M104.5,26.5
		l-1.1-3.7l1.3-0.4l1.1,3.7L104.5,26.5z M107.9,25.7l-1.3-4.2l18.1-13.6l5.8,19.2L107.9,25.7z"/>
	<path class="st0" d="M130.3,13.1c0.1,0,0.2,0,0.3,0l4.7-1.4c0.5-0.2,0.8-0.7,0.7-1.2c-0.2-0.5-0.7-0.8-1.2-0.7l-4.7,1.4
		c-0.5,0.2-0.8,0.7-0.7,1.2C129.4,12.9,129.8,13.1,130.3,13.1z"/>
	<path class="st0" d="M140.3,13.6c-0.2-0.5-0.7-0.8-1.2-0.7l-7.9,2.4c-0.5,0.2-0.8,0.7-0.7,1.2c0.1,0.4,0.5,0.7,1,0.7
		c0.1,0,0.2,0,0.3,0l7.9-2.4C140.2,14.7,140.5,14.1,140.3,13.6z"/>
	<path class="st0" d="M137.1,18l-4.7,1.4c-0.5,0.2-0.8,0.7-0.7,1.2c0.1,0.4,0.5,0.7,1,0.7c0.1,0,0.2,0,0.3,0l4.7-1.4
		c0.5-0.2,0.8-0.7,0.7-1.2C138.2,18.2,137.7,17.9,137.1,18z"/>
	<path class="st0" d="M276,160.7l-17.9-14.3c-0.3-0.2-0.6-0.3-0.9-0.2s-0.6,0.3-0.7,0.6l-7.8,23.2c0,0-0.1,0-0.1,0.1l-2.1,2.6
		c-0.2,0.2-0.2,0.5-0.2,0.7c0,0.3,0.2,0.5,0.4,0.7l4.6,3.7c0.2,0.1,0.4,0.2,0.6,0.2c0.3,0,0.6-0.1,0.8-0.4l2.1-2.6c0,0,0,0,0-0.1
		l3.3-2l0.8,1.4c0.2,0.3,0.5,0.5,0.9,0.5c0.2,0,0.4,0,0.5-0.1l5-3c0.5-0.3,0.6-0.9,0.3-1.4l-0.9-1.4l11-6.6c0.3-0.2,0.5-0.5,0.5-0.8
		C276.4,161.2,276.3,160.9,276,160.7z M260.2,172.5l-0.3-0.4l3.3-2l0.3,0.4L260.2,172.5z M251.8,175.6l-3-2.4l0.8-1l3,2.4
		L251.8,175.6z M254.2,173.1l-3.4-2.8l7.2-21.5l15.6,12.5L254.2,173.1z"/>
	<path class="st0" d="M265,150.2c0.3,0,0.6-0.1,0.8-0.4l3.1-3.8c0.3-0.4,0.3-1.1-0.2-1.4c-0.4-0.3-1.1-0.3-1.4,0.2l-3.1,3.8
		c-0.3,0.4-0.3,1.1,0.2,1.4C264.6,150.2,264.8,150.2,265,150.2z"/>
	<path class="st0" d="M267.7,152.7c0.2,0.1,0.4,0.2,0.6,0.2c0.3,0,0.6-0.1,0.8-0.4l5.1-6.4c0.3-0.4,0.3-1.1-0.2-1.4
		c-0.4-0.3-1.1-0.3-1.4,0.2l-5.1,6.4C267.2,151.7,267.3,152.4,267.7,152.7z"/>
	<path class="st0" d="M270.9,154c-0.3,0.4-0.3,1.1,0.2,1.4c0.2,0.1,0.4,0.2,0.6,0.2c0.3,0,0.6-0.1,0.8-0.4l3.1-3.8
		c0.3-0.4,0.3-1.1-0.2-1.4c-0.4-0.3-1.1-0.3-1.4,0.2L270.9,154z"/>
	<path class="st0" d="M62.6,115.5c-0.1-0.3-0.4-0.5-0.7-0.6l-23.7-6.3l-0.1-0.1l-2.7-1.9c-0.2-0.2-0.5-0.2-0.7-0.2
		c-0.3,0-0.5,0.2-0.6,0.4l-3.4,4.8c-0.2,0.2-0.2,0.5-0.2,0.7c0,0.3,0.2,0.5,0.4,0.6l2.7,1.9c0,0,0,0,0.1,0l2.2,3.2l-1.4,0.9
		c-0.5,0.3-0.6,0.9-0.3,1.4l3.3,4.8c0.1,0.2,0.4,0.4,0.6,0.4c0.1,0,0.1,0,0.2,0c0.2,0,0.4-0.1,0.6-0.2l1.4-0.9l7.3,10.5
		c0.2,0.3,0.5,0.4,0.8,0.4l0,0c0.3,0,0.6-0.2,0.8-0.4l13.2-18.7C62.6,116.1,62.7,115.8,62.6,115.5z M38.7,123.3l-2.2-3.2l0.4-0.3
		l2.2,3.2L38.7,123.3z M35.1,108.7l1.1,0.8l-2.2,3.2l-1.1-0.8L35.1,108.7z M48.5,132.8l-12.9-18.6l2.5-3.6l21.9,5.8L48.5,132.8z"/>
	<path class="st0" d="M59.2,122.8c-0.3,0.5-0.2,1.1,0.2,1.4l4,2.8c0.2,0.1,0.4,0.2,0.6,0.2c0.3,0,0.6-0.1,0.8-0.4
		c0.3-0.5,0.2-1.1-0.2-1.4l-4-2.8C60.1,122.3,59.5,122.4,59.2,122.8z"/>
	<path class="st0" d="M64.8,130.8l-6.7-4.7c-0.5-0.3-1.1-0.2-1.4,0.2c-0.3,0.5-0.2,1.1,0.2,1.4l6.7,4.7c0.2,0.1,0.4,0.2,0.6,0.2
		c0.3,0,0.6-0.1,0.8-0.4C65.4,131.8,65.3,131.2,64.8,130.8z"/>
	<path class="st0" d="M55.6,129.7c-0.5-0.3-1.1-0.2-1.4,0.2c-0.3,0.5-0.2,1.1,0.2,1.4l4,2.8c0.2,0.1,0.4,0.2,0.6,0.2
		c0.3,0,0.6-0.1,0.8-0.4c0.3-0.5,0.2-1.1-0.2-1.4L55.6,129.7z"/>
	<path class="st0" d="M196.4,64.7c-0.3-0.4-0.8-0.5-1.2-0.3c-0.4,0.3-0.5,0.8-0.3,1.2l1.1,1.8c0.2,0.3,0.5,0.4,0.8,0.4
		c0.2,0,0.3,0,0.5-0.1c0.4-0.3,0.5-0.8,0.3-1.2L196.4,64.7z"/>
	<path class="st0" d="M205.1,61.8L204,60c-0.3-0.4-0.8-0.6-1.2-0.3s-0.5,0.8-0.3,1.2l1.1,1.8c0.2,0.3,0.5,0.4,0.8,0.4
		c0.2,0,0.3,0,0.5-0.1C205.2,62.7,205.4,62.2,205.1,61.8z"/>
	<path class="st0" d="M200.2,62.4c-0.3-0.4-0.8-0.6-1.2-0.3s-0.5,0.8-0.3,1.2l3.6,5.7c0.2,0.3,0.5,0.4,0.8,0.4c0.2,0,0.3,0,0.5-0.1
		c0.4-0.3,0.5-0.8,0.3-1.2L200.2,62.4z"/>
	<path class="st0" d="M202.8,56.3l-12.2-19.9c-0.1-0.2-0.3-0.3-0.6-0.4c-0.2-0.1-0.5,0-0.7,0.1l-0.4,0.2l-6.1-4
		c-0.3-0.2-0.7-0.2-1,0l-2.2,1.3c-0.3,0.2-0.5,0.5-0.4,0.9l1.1,7l-0.4,0.2c-0.4,0.3-0.6,0.8-0.3,1.2L192,63c0.1,0.2,0.3,0.3,0.6,0.4
		c0.1,0,0.1,0,0.2,0c0.2,0,0.3,0,0.5-0.1l9.3-5.7C202.9,57.3,203.1,56.8,202.8,56.3z M199.2,53.9l-7.8,4.8l-8-13l7.8-4.8L199.2,53.9
		z M190.3,39.3l-7.8,4.8l-0.7-1.1l3.2-2l4.5-2.8l0,0l0.1-0.1L190.3,39.3z M181.2,34.9l1.2-0.7l4.9,3.2l-5.2,3.2L181.2,34.9z
		 M193,61.3l-0.7-1.1l7.8-4.8l0.7,1.1L193,61.3z"/>
	<path class="st0" d="M188.7,45.5c-1.5,0.9-2,2.9-1.1,4.4l1.8,2.9c0.4,0.7,1.2,1.3,2,1.5c0.3,0.1,0.5,0.1,0.8,0.1
		c0.6,0,1.2-0.2,1.7-0.5l0,0c1.5-0.9,2-2.9,1.1-4.4l-1.8-2.9C192.2,45,190.2,44.6,188.7,45.5z M193.4,50.4c0.4,0.7,0.2,1.5-0.5,2
		c-0.3,0.2-0.7,0.3-1.1,0.2c-0.4-0.1-0.7-0.3-0.9-0.6l-1.8-2.9c-0.4-0.7-0.2-1.5,0.5-2c0.2-0.1,0.5-0.2,0.7-0.2
		c0.5,0,0.9,0.2,1.2,0.7L193.4,50.4z"/>
	<path class="st0" d="M60.4,203.3l-1.9-0.9c-0.5-0.2-1,0-1.2,0.4c-0.2,0.5,0,1,0.4,1.2l1.9,0.9c0.1,0.1,0.2,0.1,0.4,0.1
		c0.3,0,0.7-0.2,0.8-0.5C61.1,204,60.9,203.5,60.4,203.3z"/>
	<path class="st0" d="M61.5,195.9l1.9,0.9c0.1,0.1,0.2,0.1,0.4,0.1c0.3,0,0.7-0.2,0.8-0.5c0.2-0.5,0-1-0.4-1.2l-1.9-0.9
		c-0.5-0.2-1,0-1.2,0.4C60.8,195.1,61,195.7,61.5,195.9z"/>
	<path class="st0" d="M66.6,201.2l-6.1-2.8c-0.5-0.2-1,0-1.2,0.4c-0.2,0.5,0,1,0.4,1.2l6.1,2.8c0.1,0.1,0.2,0.1,0.4,0.1
		c0.3,0,0.7-0.2,0.8-0.5C67.3,201.9,67.1,201.4,66.6,201.2z"/>
	<path class="st0" d="M59.3,191.9L38.2,182c-0.2-0.1-0.5-0.1-0.7,0s-0.4,0.2-0.5,0.5l-0.2,0.4h-7.3c-0.3,0-0.7,0.2-0.8,0.5l-1.1,2.3
		c-0.2,0.3-0.1,0.7,0.1,1l4.8,5.2l-0.2,0.4c-0.2,0.4,0,1,0.4,1.2l21.1,9.9c0.1,0.1,0.3,0.1,0.4,0.1c0.1,0,0.2,0,0.3-0.1
		c0.2-0.1,0.4-0.2,0.5-0.5l4.7-9.9C59.9,192.6,59.7,192.1,59.3,191.9z M30.1,184.6H36l-2.6,5.5l-3.9-4.2L30.1,184.6z M54.9,191.8
		L51,200l-13.8-6.5l3.9-8.2L54.9,191.8z M38.2,183.9l1.2,0.6l-3.9,8.2l-1.2-0.6L38.2,183.9z M53.8,201.4l-1.2-0.6l3.9-8.2l1.2,0.6
		L53.8,201.4z"/>
	<path class="st0" d="M43.1,194.8l3.1,1.5c0.4,0.2,0.9,0.3,1.4,0.3c1.2,0,2.4-0.7,2.9-1.9c0.8-1.6,0.1-3.5-1.5-4.3l-3.1-1.5
		c-0.8-0.4-1.7-0.4-2.5-0.1c-0.8,0.3-1.5,0.9-1.8,1.7C40.8,192.1,41.5,194.1,43.1,194.8z M43.2,191.3c0.2-0.3,0.4-0.6,0.8-0.7
		c0.2-0.1,0.3-0.1,0.5-0.1s0.4,0,0.6,0.1l3.1,1.5c0.7,0.3,1,1.2,0.7,1.9l0,0c-0.3,0.7-1.2,1-1.9,0.7l-3.1-1.5
		C43.2,192.9,42.8,192,43.2,191.3z"/>
	<path class="st0" d="M392.3,98.8c0.3-0.4,0.1-1-0.3-1.2c-0.4-0.3-1-0.1-1.2,0.3l-1.1,1.8c-0.3,0.4-0.1,1,0.3,1.2
		c0.1,0.1,0.3,0.1,0.5,0.1c0.3,0,0.6-0.2,0.8-0.4L392.3,98.8z"/>
	<path class="st0" d="M399.7,102.3c-0.4-0.3-1-0.1-1.2,0.3l-1.1,1.8c-0.3,0.4-0.1,1,0.3,1.2c0.1,0.1,0.3,0.1,0.5,0.1
		c0.3,0,0.6-0.2,0.8-0.4l1.1-1.8C400.2,103.1,400.1,102.5,399.7,102.3z"/>
	<path class="st0" d="M395.8,100c-0.4-0.3-1-0.1-1.2,0.3L391,106c-0.3,0.4-0.1,1,0.3,1.2c0.1,0.1,0.3,0.1,0.5,0.1
		c0.3,0,0.6-0.2,0.8-0.4l3.5-5.7C396.4,100.8,396.2,100.3,395.8,100z"/>
	<path class="st0" d="M414.9,79.9l-0.4-0.2l0.9-7.2c0-0.3-0.1-0.7-0.4-0.9l-2.2-1.4c-0.3-0.2-0.7-0.2-1,0l-5.8,4.1l-0.4-0.2
		c-0.4-0.3-1-0.1-1.2,0.3L392,94.1c-0.1,0.2-0.2,0.4-0.1,0.7c0.1,0.2,0.2,0.4,0.4,0.6l9.2,5.8c0.1,0.1,0.3,0.1,0.5,0.1
		c0.3,0,0.6-0.1,0.8-0.4l12.4-19.7c0.1-0.2,0.2-0.4,0.1-0.7C415.2,80.2,415.1,80,414.9,79.9z M407.6,75.3l4.7-3.3l1.2,0.7l-0.7,5.8
		l-2.4-1.5L407.6,75.3z M413,80.9L413,80.9l0.1,0.1l-0.7,1.1l-7.7-4.9l0.7-1.1l2.8,1.8L413,80.9z M411.5,83.6l-8.2,12.9l-7.7-4.9
		l8.2-12.9L411.5,83.6z M401.7,99.1l-7.7-4.9l0.7-1.1l7.7,4.9L401.7,99.1z"/>
	<path class="st0" d="M400.9,91.8c0.5,0.3,1.1,0.5,1.7,0.5c0.2,0,0.5,0,0.7-0.1c0.8-0.2,1.6-0.7,2-1.4l1.8-2.9
		c0.9-1.5,0.5-3.5-1-4.4s-3.5-0.5-4.4,1l-1.8,2.9C399,88.8,399.4,90.8,400.9,91.8z M401.4,88.3l1.8-2.9c0.3-0.4,0.7-0.7,1.2-0.7
		c0.3,0,0.5,0.1,0.8,0.2c0.7,0.4,0.9,1.3,0.4,2l-1.8,2.9c-0.2,0.3-0.5,0.5-0.9,0.6s-0.8,0-1.1-0.2c-0.3-0.2-0.5-0.5-0.6-0.9
		C401.2,89,401.2,88.6,401.4,88.3z"/>
	<path class="st0" d="M346.2,50.6c2.3-0.2,4-1.9,4-3.9s-1.8-3.7-4-3.9c-1.2-2.9-3.9-5.3-7.1-6.6l1.1-4.4c0.1-0.5-0.2-1-0.7-1.1
		s-1,0.2-1.1,0.7l-1.1,4.3c-0.6-0.2-1.3-0.3-1.9-0.4l0.9-3.4c0.1-0.5-0.2-1-0.7-1.1s-1,0.2-1.1,0.7l-1,3.8c-0.1,0-0.3,0-0.4,0
		c-0.6,0-1.1,0-1.6,0.1l0.9-3.4c0.1-0.5-0.2-1-0.7-1.1s-1,0.2-1.1,0.7l-1.1,4.2c-4.3,1-7.8,3.7-9.4,7.3c-2.3,0.2-4.1,1.8-4.1,3.9
		s1.8,3.7,4.1,3.9c1,2.3,2.7,4.2,5,5.5c-3.1,1.1-5.3,4.1-5.3,7.5v2.3c0,0.5,0.4,0.9,0.9,0.9h24.6c0.5,0,0.9-0.4,0.9-0.9v-2.3
		c0-3.4-2.2-6.4-5.2-7.5C343.4,54.8,345.2,52.9,346.2,50.6z M344.6,63.7V65h-22.8v-1.3c0-3.4,2.8-6.2,6.2-6.2l0,0
		c1.6,0.6,3.4,0.9,5.2,0.9c1.8,0,3.5-0.3,5.2-0.9l0,0C341.8,57.5,344.6,60.2,344.6,63.7z M333.2,56.5c-5.3,0-10-2.9-11.5-7.1
		c-0.1-0.4-0.5-0.6-0.9-0.6c0,0,0,0-0.1,0h-0.2c-1.5,0-2.7-0.9-2.7-2.1s1.2-2.1,2.7-2.1c0.1,0,0.1,0,0.2,0c0.4,0,0.8-0.2,0.9-0.6
		c1.1-3,3.9-5.4,7.3-6.5l-0.2,0.9c-0.1,0.5,0.2,1,0.7,1.1c0.1,0,0.2,0,0.2,0c0.4,0,0.8-0.3,0.9-0.7L331,37c0.7-0.1,1.3-0.2,2-0.2
		l-0.4,1.5c-0.1,0.5,0.2,1,0.7,1.1c0.1,0,0.2,0,0.2,0c0.4,0,0.8-0.3,0.9-0.7l0.5-1.8c0.7,0.1,1.3,0.2,1.9,0.4l-0.3,1
		c-0.1,0.5,0.2,1,0.7,1.1c0.1,0,0.2,0,0.2,0c0.4,0,0.8-0.3,0.9-0.7l0.2-0.9c2.9,1.2,5.1,3.3,6.1,6c0.1,0.4,0.6,0.6,1,0.6h0.1
		c1.5,0,2.7,0.9,2.7,2.1s-1.2,2.1-2.7,2.1v0.9l-0.1-0.9c-0.4,0-0.8,0.2-0.9,0.6C343.2,53.6,338.5,56.5,333.2,56.5z"/>
	<path class="st0" d="M335.6,50.7c-1.4,1.1-3.4,1.1-4.8,0c-0.4-0.3-1-0.2-1.3,0.2s-0.2,1,0.2,1.3c1,0.8,2.2,1.2,3.5,1.2
		s2.5-0.4,3.5-1.2c0.4-0.3,0.5-0.9,0.2-1.3C336.6,50.5,336,50.4,335.6,50.7z"/>
	<circle class="st0" cx="328.5" cy="45.5" r="1"/>
	<circle class="st0" cx="337.8" cy="45.5" r="1"/>
	<path class="st0" d="M403.5,163.4c1.2-0.3,2.3-1,3.2-1.9c0.3-0.4,0.3-1-0.1-1.3s-1-0.3-1.3,0.1c-0.6,0.7-1.3,1.1-2.2,1.3
		c-0.9,0.2-1.7,0.1-2.5-0.2c-0.5-0.2-1,0-1.2,0.5s0,1,0.5,1.2c0.7,0.3,1.5,0.5,2.3,0.5C402.6,163.6,403.1,163.5,403.5,163.4z"/>
	<ellipse transform="matrix(0.9737 -0.2278 0.2278 0.9737 -25.3018 94.6086)" class="st0" cx="397.2" cy="156.9" rx="1" ry="1"/>
	<ellipse transform="matrix(0.9737 -0.2279 0.2279 0.9737 -24.5604 96.6644)" class="st0" cx="406.3" cy="154.7" rx="1" ry="1"/>
	<path class="st0" d="M419.3,172.7l-0.5-2.2c-0.5-2.1-1.8-3.9-3.6-5c-1-0.6-2.1-1-3.2-1.1c1.9-1.8,3.2-4.1,3.6-6.5
		c2.2-0.7,3.5-2.7,3.1-4.7c-0.5-2-2.6-3.2-4.8-2.9c-1.9-2.6-5-4.3-8.4-4.8l0.1-4.6c0-0.5-0.4-0.9-0.9-0.9s-0.9,0.4-0.9,0.9l-0.1,4.4
		c-0.6,0-1.3,0-1.9,0.1l0.1-3.6c0-0.5-0.4-0.9-0.9-0.9s-0.9,0.4-0.9,0.9l-0.1,3.9c-0.1,0-0.2,0-0.4,0.1c-0.5,0.1-1.1,0.3-1.6,0.5
		l0.1-3.5c0-0.5-0.4-0.9-0.9-0.9s-0.9,0.4-0.9,0.9L396,147c-3.9,1.9-6.8,5.4-7.5,9.2c-1,0.3-1.9,0.9-2.4,1.7c-0.7,0.9-1,2-0.7,3.1
		c0.2,1,1,1.9,2,2.4c0.9,0.4,1.9,0.6,2.9,0.4c1.4,2,3.6,3.4,6.1,4.2c-1,0.6-1.8,1.5-2.4,2.5c-1.1,1.8-1.5,4-1,6.1l0.5,2.2
		c0.1,0.4,0.5,0.7,0.9,0.7c0.1,0,0.1,0,0.2,0l24-5.6c0.2-0.1,0.4-0.2,0.6-0.4C419.3,173.2,419.3,172.9,419.3,172.7z M391.5,162.2
		c-0.2-0.3-0.5-0.4-0.8-0.4c-0.1,0-0.2,0-0.3,0h-0.2c-0.7,0.2-1.5,0.1-2.1-0.2c-0.5-0.3-0.9-0.7-1-1.2s0-1.1,0.4-1.5
		c0.4-0.5,1-0.9,1.8-1.1h0.2c0.4-0.1,0.7-0.4,0.7-0.8c0.3-3.2,2.5-6.1,5.7-8v0.9c0,0.5,0.4,0.9,0.9,0.9l0,0c0.5,0,0.9-0.4,0.9-0.9
		V148c0.6-0.2,1.3-0.5,2-0.6v1.6c0,0.5,0.4,0.9,0.9,0.9l0,0c0.5,0,0.9-0.4,0.9-0.9v-1.9c0.7-0.1,1.3-0.1,1.9-0.1v1.1
		c0,0.5,0.4,0.9,0.9,0.9l0,0c0.5,0,0.9-0.4,0.9-0.9v-0.9c3.1,0.5,5.8,2.1,7.3,4.5c0.2,0.3,0.7,0.5,1.1,0.4h0.1
		c1.4-0.3,2.8,0.3,3.1,1.4c0.3,1.1-0.7,2.3-2.1,2.6l0.2,0.9l-0.3-0.9c-0.4,0.1-0.7,0.4-0.7,0.8c-0.5,4.4-4.4,8.3-9.6,9.5
		C399.1,167.7,393.9,165.9,391.5,162.2z M395.1,177.4l-0.3-1.3c-0.4-1.6-0.1-3.3,0.8-4.7s2.2-2.4,3.9-2.8l0,0
		c0.5,0.1,1.1,0.1,1.7,0.1c1.2,0,2.4-0.1,3.6-0.4c1.8-0.4,3.4-1.1,4.8-2l0,0c1.6-0.4,3.3-0.1,4.7,0.8c1.4,0.9,2.4,2.2,2.8,3.9
		l0.3,1.3L395.1,177.4z"/>
	<path class="st0" d="M134.5,86.1c-0.1-3.2-1.7-6.3-4.3-8.7l2.6-3.7c0.3-0.4,0.2-1-0.2-1.3s-1-0.2-1.3,0.2l-2.6,3.6
		c-0.5-0.4-1.1-0.7-1.6-1l2.1-2.9c0.3-0.4,0.2-1-0.2-1.3s-1-0.2-1.3,0.2l-2.3,3.2c-0.1,0-0.2-0.1-0.4-0.1c-0.5-0.2-1-0.4-1.6-0.5
		l2-2.8c0.3-0.4,0.2-1-0.2-1.3c-0.4-0.3-1-0.2-1.3,0.2l-2.5,3.5c-4.3-0.6-8.6,0.6-11.3,3.4c-1-0.3-2-0.3-3,0
		c-1.1,0.4-1.9,1.1-2.3,2.1s-0.3,2.1,0.3,3.1c0.5,0.9,1.3,1.6,2.2,2c0.1,2.4,1.1,4.9,2.7,6.9c-1.2,0-2.3,0.2-3.4,0.7
		c-2,0.9-3.5,2.5-4.2,4.5l-0.8,2.1c-0.2,0.5,0.1,1,0.5,1.2l23,8.8c0.1,0,0.2,0.1,0.3,0.1c0.1,0,0.3,0,0.4-0.1
		c0.2-0.1,0.4-0.3,0.5-0.5l0.8-2.1c1.2-3.2,0.2-6.7-2.2-8.9c2.6-0.5,4.9-1.6,6.7-3.4c2.2,0.6,4.4-0.3,5.2-2.2
		C137.7,89.3,136.6,87.1,134.5,86.1z M125.6,105l-0.5,1.3l-21.3-8.2l0.5-1.3c1.2-3.2,4.8-4.8,8-3.6l0,0c1.3,1.1,2.9,2,4.6,2.7
		c1.7,0.6,3.4,1,5.1,1l0,0C125.2,98.2,126.8,101.8,125.6,105z M135.2,90.5c-0.4,1.1-1.9,1.5-3.3,1l-0.3,0.9l0.2-0.9
		c-0.4-0.2-0.8-0.1-1.1,0.2c-2.8,3.4-8.3,4.4-13.2,2.5c-4.9-1.9-8.3-6.3-8.2-10.7c0-0.4-0.3-0.8-0.7-0.9l-0.2-0.1
		c-0.7-0.3-1.3-0.7-1.6-1.3c-0.3-0.5-0.4-1.1-0.2-1.6c0.2-0.5,0.6-0.9,1.2-1.1c0.3-0.1,0.6-0.1,0.9-0.1c0.4,0,0.8,0.1,1.2,0.2
		c0.1,0,0.1,0.1,0.2,0.1c0.4,0.2,0.8,0.1,1.1-0.2c2.1-2.5,5.5-3.7,9.2-3.4l-0.5,0.7c-0.3,0.4-0.2,1,0.2,1.3c0.2,0.1,0.3,0.2,0.5,0.2
		c0.3,0,0.6-0.1,0.7-0.4l1.1-1.5c0.7,0.1,1.3,0.3,2,0.6l-0.9,1.3c-0.3,0.4-0.2,1,0.2,1.3c0.2,0.1,0.3,0.2,0.5,0.2
		c0.3,0,0.6-0.1,0.7-0.4l1.1-1.6c0.6,0.3,1.1,0.7,1.6,1l-0.6,0.9c-0.3,0.4-0.2,1,0.2,1.3c0.2,0.1,0.3,0.2,0.5,0.2
		c0.3,0,0.6-0.1,0.7-0.4l0.5-0.8c2.3,2.2,3.6,5,3.5,7.8c0,0.4,0.3,0.8,0.7,0.9l0.4-0.8l-0.3,0.9l0,0
		C134.9,88.2,135.6,89.5,135.2,90.5z"/>
	<path class="st0" d="M121.9,89.6c-0.8,0.2-1.7,0.2-2.5-0.1c-0.8-0.3-1.5-0.9-2-1.6c-0.3-0.4-0.8-0.6-1.3-0.3
		c-0.4,0.3-0.6,0.8-0.3,1.3c0.7,1.1,1.7,1.9,2.9,2.3c0.7,0.3,1.4,0.4,2.1,0.4c0.5,0,1.1-0.1,1.6-0.2s0.8-0.6,0.6-1.1
		C122.8,89.8,122.3,89.5,121.9,89.6z"/>
	<ellipse transform="matrix(0.3575 -0.9339 0.9339 0.3575 -1.5697 162.2324)" class="st0" cx="117.1" cy="82.3" rx="1" ry="1"/>
	<ellipse transform="matrix(0.3576 -0.9339 0.9339 0.3576 0.8707 172.491)" class="st0" cx="125.8" cy="85.6" rx="1" ry="1"/>
	<path class="st0" d="M194.8,189.6c-0.5,0-0.9,0.4-1,0.9c0,0.9-0.4,1.7-0.9,2.4c-0.6,0.7-1.3,1.1-2.2,1.3c-0.5,0.1-0.8,0.6-0.7,1.1
		c0.1,0.4,0.5,0.7,0.9,0.7c0.1,0,0.1,0,0.2,0c1.2-0.3,2.3-1,3.1-1.9c0.8-1,1.3-2.2,1.4-3.4C195.7,190.1,195.3,189.7,194.8,189.6z"/>
	<ellipse transform="matrix(0.6409 -0.7677 0.7677 0.6409 -81.3107 211.4176)" class="st0" cx="185.3" cy="192.6" rx="1" ry="1"/>
	<ellipse transform="matrix(0.6409 -0.7676 0.7676 0.6409 -73.6783 213.4734)" class="st0" cx="191.3" cy="185.5" rx="1" ry="1"/>
	<path class="st0" d="M212.4,192l-1.7-1.4c-1.6-1.4-3.7-2-5.9-1.8c-1.2,0.1-2.3,0.5-3.2,1c0.4-2.6,0.1-5.2-1-7.4
		c0.6-0.8,0.9-1.8,0.9-2.7c0-1.2-0.4-2.2-1.3-2.9c-1.5-1.3-4-1-5.6,0.6c-3-0.9-6.5-0.4-9.6,1.2l-2.7-3.7c-0.3-0.4-0.9-0.5-1.3-0.2
		c-0.4,0.3-0.5,0.9-0.2,1.3l2.6,3.6c-0.5,0.4-1,0.8-1.5,1.2l-2.1-2.9c-0.3-0.4-0.9-0.5-1.3-0.2c-0.4,0.3-0.5,0.9-0.2,1.3l2.3,3.2
		c-0.1,0.1-0.2,0.2-0.3,0.3c-0.4,0.4-0.7,0.9-1,1.3l-2-2.8c-0.3-0.4-0.9-0.5-1.3-0.2c-0.4,0.3-0.5,0.9-0.2,1.3l2.5,3.5
		c-2,3.9-2.2,8.4-0.4,11.8c-0.6,0.8-0.9,1.8-0.9,2.8c0,1.2,0.4,2.2,1.3,2.9c0.6,0.5,1.4,0.8,2.3,0.8c0.2,0,0.5,0,0.8-0.1
		c1-0.2,1.9-0.7,2.6-1.4c2.3,0.7,4.9,0.6,7.4-0.3c-0.4,1.1-0.6,2.3-0.4,3.4c0.2,2.1,1.2,4.1,2.8,5.4l1.7,1.4
		c0.2,0.1,0.4,0.2,0.6,0.2c0.3,0,0.5-0.1,0.7-0.3l15.8-18.9c0.2-0.2,0.2-0.4,0.2-0.7C212.7,192.3,212.6,192.1,212.4,192z M184,200.3
		c-0.4-0.1-0.8,0-1.1,0.3l-0.1,0.1c-0.5,0.6-1.1,1-1.8,1.1c-0.6,0.1-1.1,0-1.5-0.3s-0.6-0.9-0.6-1.5c0-0.7,0.3-1.4,0.7-1.9l0.1-0.1
		c0.3-0.3,0.3-0.7,0.1-1.1c-1.6-2.8-1.7-6.4-0.2-9.8l0.5,0.7c0.2,0.2,0.5,0.4,0.7,0.4s0.4-0.1,0.5-0.2c0.4-0.3,0.5-0.9,0.2-1.3
		l-1.1-1.5c0.4-0.6,0.7-1.1,1.2-1.7l0.9,1.3c0.2,0.2,0.5,0.4,0.7,0.4s0.4-0.1,0.5-0.2c0.4-0.3,0.5-0.9,0.2-1.3l-1.1-1.5
		c0.5-0.4,1-0.9,1.5-1.2l0.6,0.8c0.2,0.2,0.5,0.4,0.7,0.4s0.4-0.1,0.5-0.2c0.4-0.3,0.5-0.9,0.2-1.3l-0.5-0.7
		c1.7-0.9,3.6-1.4,5.3-1.4c1.1,0,2.2,0.2,3.2,0.6c0.4,0.1,0.8,0,1.1-0.4l0,0l0,0c1-1.1,2.4-1.5,3.3-0.7c0.4,0.3,0.6,0.9,0.6,1.5
		c0,0.7-0.3,1.4-0.7,1.9l0.7,0.6l-0.8-0.5c-0.3,0.3-0.3,0.7-0.1,1.1c2.3,3.8,1.5,9.3-1.9,13.3C193.3,200.1,188.1,201.9,184,200.3z
		 M196,210.3l-1-0.9c-1.3-1.1-2.1-2.6-2.2-4.2c-0.1-1.6,0.4-3.3,1.4-4.5l0,0c1.5-0.9,2.9-2.1,4-3.5c1.2-1.4,2-2.9,2.6-4.5l0,0
		c1.1-1.3,2.6-2.1,4.2-2.2c1.7-0.2,3.3,0.4,4.5,1.4l1,0.9L196,210.3z"/>
	<path class="st0" d="M397.6,16.6c-0.1,0-0.3,0-0.4-0.1l-3.3-1.7l-3.3,1.7c-0.3,0.2-0.7,0.1-1-0.1s-0.4-0.6-0.4-0.9l0.6-3.7
		l-2.7-2.6c-0.3-0.2-0.3-0.6-0.2-1c0.1-0.3,0.4-0.6,0.8-0.6l3.7-0.5l1.6-3.3c0.3-0.6,1.4-0.6,1.7,0l1.6,3.3l3.7,0.5
		c0.4,0.1,0.6,0.3,0.8,0.6c0.1,0.3,0,0.7-0.2,1l-2.7,2.6l0.6,3.7c0.1,0.4-0.1,0.7-0.4,0.9C398,16.5,397.8,16.6,397.6,16.6z
		 M393.9,12.8c0.1,0,0.3,0,0.4,0.1l2,1.1l-0.4-2.3c-0.1-0.3,0-0.6,0.3-0.8l1.7-1.6L395.6,9c-0.3,0-0.6-0.2-0.7-0.5l-1-2.1l-1,2.1
		c-0.1,0.3-0.4,0.5-0.7,0.5l-2.3,0.3l1.6,1.6c0.2,0.2,0.3,0.5,0.3,0.8l-0.4,2.3l2-1.1C393.6,12.8,393.7,12.8,393.9,12.8z"/>
	<path class="st0" d="M415.6,36.1c-0.1,0-0.3,0-0.4-0.1l-7.5-3.9l-7.5,3.9c-0.3,0.2-0.7,0.1-1-0.1c-0.3-0.2-0.4-0.6-0.4-0.9l1.4-8.4
		l-6.1-5.9c-0.3-0.2-0.3-0.6-0.2-1c0.1-0.3,0.4-0.6,0.8-0.6l8.4-1.2l3.8-7.6c0.3-0.6,1.4-0.6,1.7,0l3.8,7.6l8.4,1.2
		c0.4,0.1,0.6,0.3,0.8,0.6c0.1,0.3,0,0.7-0.2,1l-6.1,5.9l1.4,8.4c0.1,0.4-0.1,0.7-0.4,0.9C416,36.1,415.8,36.1,415.6,36.1z
		 M407.7,30.1c0.1,0,0.3,0,0.4,0.1l6.3,3.3l-1.2-7c-0.1-0.3,0-0.6,0.3-0.8l5.1-4.9l-7-1c-0.3,0-0.6-0.2-0.7-0.5l-3.1-6.4l-3.1,6.4
		c-0.1,0.3-0.4,0.5-0.7,0.5l-7,1l5.1,4.9c0.2,0.2,0.3,0.5,0.3,0.8l-1.2,7l6.3-3.3C407.4,30.1,407.5,30.1,407.7,30.1z"/>
	<path class="st0" d="M253.5,101.1c-0.2,0-0.4-0.1-0.5-0.2l-3.1-2l-3.4,1.4c-0.3,0.1-0.7,0.1-1-0.2c-0.3-0.2-0.4-0.6-0.3-0.9l1-3.6
		l-2.4-2.8c-0.2-0.3-0.3-0.7-0.1-1c0.1-0.3,0.5-0.5,0.8-0.6l3.7-0.2l2-3.1c0.2-0.3,0.5-0.5,0.9-0.4c0.4,0,0.7,0.3,0.8,0.6l1.3,3.5
		l3.6,0.9c0.3,0.1,0.6,0.4,0.7,0.7c0.1,0.3-0.1,0.7-0.3,0.9l-2.9,2.3l0.3,3.7c0,0.4-0.2,0.7-0.5,0.9
		C253.8,101,253.7,101.1,253.5,101.1z M250,96.9c0.2,0,0.4,0.1,0.5,0.2l1.9,1.3l-0.2-2.3c0-0.3,0.1-0.6,0.4-0.8l1.8-1.4l-2.2-0.6
		c-0.3-0.1-0.5-0.3-0.6-0.6l-0.8-2.2l-1.2,2c-0.2,0.3-0.4,0.4-0.8,0.4l-2.3,0.1l1.5,1.8c0.2,0.2,0.3,0.6,0.2,0.9l-0.6,2.2l2.1-0.9
		C249.8,96.9,249.9,96.9,250,96.9z"/>
	<path class="st0" d="M275.3,100.2c-0.2,0-0.4-0.1-0.5-0.2l-7.1-4.7l-7.9,3.2c-0.3,0.1-0.7,0.1-1-0.2c-0.3-0.2-0.4-0.6-0.3-0.9
		l2.3-8.2l-5.5-6.5c-0.2-0.3-0.3-0.7-0.1-1c0.1-0.3,0.5-0.5,0.8-0.6l8.5-0.4l4.5-7.2c0.2-0.3,0.5-0.5,0.9-0.4c0.4,0,0.7,0.3,0.8,0.6
		l3,7.9l8.2,2.1c0.3,0.1,0.6,0.4,0.7,0.7s-0.1,0.7-0.3,0.9l-6.6,5.3l0.6,8.5c0,0.4-0.2,0.7-0.5,0.9
		C275.6,100.1,275.4,100.2,275.3,100.2z M267.8,93.3c0.2,0,0.4,0.1,0.5,0.2l5.9,3.9l-0.5-7.1c0-0.3,0.1-0.6,0.4-0.8l5.5-4.4
		l-6.9-1.7c-0.3-0.1-0.5-0.3-0.6-0.6l-2.5-6.6l-3.8,6c-0.2,0.3-0.4,0.4-0.8,0.4l-7,0.4l4.6,5.4c0.2,0.2,0.3,0.6,0.2,0.9l-1.9,6.8
		l6.6-2.7C267.5,93.4,267.7,93.3,267.8,93.3z"/>
	<path class="st0" d="M117.6,179.3c-0.3,0-0.6-0.2-0.8-0.5l-1.9-3.2l-3.7-0.2c-0.4,0-0.7-0.2-0.8-0.6c-0.1-0.3-0.1-0.7,0.2-1
		l2.4-2.8l-0.9-3.6c-0.1-0.3,0-0.7,0.3-0.9s0.6-0.3,1-0.2l3.4,1.4l3.1-2c0.3-0.2,0.7-0.2,1,0s0.5,0.5,0.4,0.9l-0.3,3.7l2.9,2.4
		c0.3,0.2,0.4,0.6,0.3,0.9c-0.1,0.3-0.4,0.6-0.7,0.7l-3.6,0.8l-1.4,3.4C118.4,179.1,118.1,179.3,117.6,179.3
		C117.7,179.3,117.7,179.3,117.6,179.3z M113.2,173.7l2.3,0.1c0.3,0,0.6,0.2,0.7,0.5l1.2,2l0.8-2.1c0.1-0.3,0.4-0.5,0.7-0.6l2.2-0.5
		l-1.8-1.5c-0.2-0.2-0.4-0.5-0.3-0.8l0.2-2.3l-1.9,1.2c-0.3,0.2-0.6,0.2-0.9,0.1l-2.1-0.9l0.6,2.2c0.1,0.3,0,0.6-0.2,0.8
		L113.2,173.7z"/>
	<path class="st0" d="M125.6,168.4c-0.3,0-0.6-0.2-0.8-0.5l-4.4-7.3l-8.5-0.5c-0.4,0-0.7-0.2-0.8-0.6c-0.1-0.3-0.1-0.7,0.2-1
		l5.6-6.4l-2.1-8.2c-0.1-0.3,0-0.7,0.3-0.9s0.6-0.3,1-0.2l7.8,3.3l7.2-4.6c0.3-0.2,0.7-0.2,1,0s0.5,0.5,0.4,0.9l-0.7,8.5l6.5,5.4
		c0.3,0.2,0.4,0.6,0.3,0.9c-0.1,0.3-0.4,0.6-0.7,0.7l-8.3,1.9l-3.1,7.9C126.3,168.2,126,168.4,125.6,168.4L125.6,168.4z
		 M113.9,158.5l7.1,0.4c0.3,0,0.6,0.2,0.7,0.5l3.6,6.1l2.6-6.6c0.1-0.3,0.4-0.5,0.7-0.6l6.9-1.6l-5.5-4.5c-0.2-0.2-0.4-0.5-0.3-0.8
		l0.6-7.1l-6,3.8c-0.3,0.2-0.6,0.2-0.9,0.1l-6.5-2.8l1.8,6.9c0.1,0.3,0,0.6-0.2,0.8L113.9,158.5z"/>
	<path class="st0" d="M281.7,21.6c0-1.4-1.5-2.5-4.6-3.3c-0.5-0.1-1.1,0.2-1.2,0.7s0.2,1.1,0.7,1.2c2.4,0.6,3,1.2,3.1,1.4
		c-0.3,0.5-1.7,1.1-4.2,1.6l-2.7-10.3l0,0c0-0.1-0.1-0.1-0.1-0.2c0-0.1,0-0.1-0.1-0.2l-0.1-0.1c-0.1,0-0.1-0.1-0.2-0.1l0,0l-3.4-1.7
		c0-0.1,0-0.2,0-0.2L268,7c-0.1-0.5-0.7-0.9-1.2-0.7c-0.5,0.1-0.9,0.7-0.7,1.2l0.5,1.9l-6.4-3.2c-0.4-0.2-1-0.1-1.3,0.3l-7.7,11.1
		l0,0c0,0.1-0.1,0.1-0.1,0.2s0,0.1-0.1,0.2c0,0.1,0,0.1,0,0.2s0,0.1,0,0.2l0,0l1.3,5.2c-4.2-0.6-6.6-1.5-7-2.1
		c0.1-0.2,0.8-0.8,3.3-1.4c0.5-0.1,0.9-0.7,0.7-1.2c-0.1-0.5-0.7-0.9-1.2-0.7c-3.3,0.8-4.9,1.9-4.9,3.4c0,2.4,4.8,3.6,9.6,4.2
		l2.1,8.2c0.1,0.3,0.2,0.5,0.5,0.6c0.2,0.1,0.3,0.1,0.5,0.1c0.1,0,0.2,0,0.2,0L263,33l0,0l6.4-1.6l0,0l6.7-1.7
		c0.5-0.1,0.9-0.7,0.7-1.2l-0.8-3.3C279.1,24.4,281.7,23.3,281.7,21.6z M253.1,18.5l6.9-10l10.9,5.4l2.5,9.7
		c-1.4,0.2-3.1,0.4-4.9,0.6l-1.1-4.1c-0.1-0.3-0.2-0.5-0.5-0.6c-0.2-0.1-0.5-0.2-0.8-0.1l-6.4,1.6c-0.5,0.1-0.9,0.7-0.7,1.2l0.6,2.1
		c-1.9-0.1-3.6-0.2-5.2-0.3L253.1,18.5z M263.5,30.8l-1.2-4.5c0.1,0,0.2,0,0.2,0c0.2,0,2.1,0,4.5-0.1l0.9,3.5L263.5,30.8z
		 M262.5,24.3c-0.2,0-0.5,0-0.7,0l-0.4-1.7l4.4-1.1l0.7,2.8C265.3,24.3,263.9,24.3,262.5,24.3z M255.1,26c2,0.2,3.8,0.3,5.2,0.3
		l1.3,5l-4.8,1.2L255.1,26z M274.6,27.9l-4.8,1.2L269,26c1.6-0.1,3.3-0.3,4.9-0.6L274.6,27.9z"/>
	<path class="st0" d="M345.5,127.1c-0.3-0.5-0.9-0.6-1.4-0.3c-0.5,0.3-0.6,0.9-0.3,1.4c1.4,2,1.5,2.8,1.5,3.1
		c-0.5,0.2-2-0.3-4.2-1.5l4.7-9.5l0,0c0-0.1,0-0.1,0.1-0.2c0-0.1,0-0.1,0-0.2s0-0.1,0-0.2s0-0.1,0-0.2l0,0l-1.5-3.5
		c0.1-0.1,0.1-0.1,0.1-0.2l1.5-3c0.2-0.5,0-1.1-0.5-1.3c-0.5-0.2-1.1,0-1.3,0.5l-0.8,1.7l-2.8-6.5c-0.2-0.5-0.7-0.7-1.2-0.6
		l-13.1,3.5l0,0c-0.1,0-0.1,0.1-0.2,0.1c0,0-0.1,0-0.1,0.1l-0.1,0.1c0,0.1-0.1,0.1-0.1,0.2l0,0l-2.3,4.8c-2.8-3.2-4.1-5.4-4-6.2
		c0.2,0,1.1-0.1,3.5,1.1c0.5,0.2,1.1,0,1.3-0.5c0.2-0.5,0-1.1-0.5-1.3c-3.1-1.5-4.9-1.7-5.9-0.6c-1.1,1.2-0.3,3.4,2.3,6.7
		c0.7,0.9,1.4,1.8,2.3,2.7l-3.7,7.6c-0.2,0.5,0,1.1,0.5,1.3l6.2,3l0,0l5.9,2.9l0,0l6.2,3c0.1,0.1,0.3,0.1,0.4,0.1s0.2,0,0.3-0.1
		c0.2-0.1,0.5-0.3,0.6-0.5l1.5-3c2.1,1.1,3.8,1.7,4.9,1.7c0.8,0,1.3-0.2,1.7-0.7C347.8,131.6,347.3,129.8,345.5,127.1z M327.2,111.7
		l11.8-3.1l4.8,11.2l-4.4,9c-1.2-0.7-2.6-1.7-4.1-2.8l1.9-3.8c0.2-0.5,0-1.1-0.5-1.3l-5.9-2.9c-0.5-0.2-1.1,0-1.3,0.5l-1,2
		c-1.4-1.3-2.6-2.5-3.7-3.6L327.2,111.7z M327,127.8l2-4.1c0.1,0,0.1,0.1,0.2,0.1c1.2,1,2.3,1.9,3.5,2.8l-1.6,3.2L327,127.8z
		 M330.5,122.3c-0.2-0.2-0.4-0.3-0.5-0.5l0.8-1.6l4.1,2l-1.3,2.6C332.6,124.1,331.6,123.2,330.5,122.3z M323.8,118.7
		c1.1,1.2,2.4,2.4,3.7,3.6l-2.3,4.6l-4.4-2.2L323.8,118.7z M337.3,132.9l-4.4-2.2l1.4-2.9c1.4,1,2.8,2,4.1,2.8L337.3,132.9z"/>
</g>
</svg>
