<?xml version="1.0" encoding="utf-8"?>
<!-- Generator: Adobe Illustrator 21.1.0, SVG Export Plug-In . SVG Version: 6.00 Build 0)  -->
<svg version="1.1" id="Layer_1" xmlns="http://www.w3.org/2000/svg" xmlns:xlink="http://www.w3.org/1999/xlink" x="0px" y="0px"
	 viewBox="0 0 566.9 1133.9" style="enable-background:new 0 0 566.9 1133.9;" xml:space="preserve">
<style type="text/css">
	.st0{fill:#FFFFFF;}
</style>
<g>
	<g>
		
			<image style="overflow:visible;opacity:0.75;" width="305" height="321" xlink:href="1BDE7F8F60A0C2B6.html"  transform="matrix(0.24 0 0 0.24 189.0482 301.8482)">
		</image>
		<g>
			<polygon class="st0" points="214.7,353.1 236.6,353.1 225.6,327.5 			"/>
		</g>
	</g>
	<g>
		
			<image style="overflow:visible;opacity:0.75;" width="341" height="323" xlink:href="1BDE7F8F60A0C2BA.html"  transform="matrix(0.24 0 0 0.24 110.3282 289.1282)">
		</image>
		<g>
			<path class="st0" d="M161.5,316.5c-1.4-1.1-2.7-1.7-4-1.7H136V341h21.5c1.3,0,2.6-0.6,4-1.7c1.5-1.3,2.7-2.9,3.6-5
				c0.9-2,1.4-4.2,1.4-6.5c0-2.2-0.5-4.4-1.4-6.5C164.2,319.4,163,317.7,161.5,316.5z"/>
		</g>
	</g>
	<g>
		
			<image style="overflow:visible;opacity:0.75;" width="432" height="466" xlink:href="1BDE7F8F60A0C2BD.html"  transform="matrix(0.24 0 0 0.24 267.0482 167.4482)">
		</image>
		<g>
			<path class="st0" d="M305.2,249.5c3.9,2.6,8.5,3.9,13.5,3.9c5,0,9.5-1.3,13.4-4c4-2.7,7.1-6.3,9.4-10.8c2.3-4.6,3.4-9.7,3.4-15.4
				c0-5.6-1.1-10.8-3.4-15.4c-2.2-4.5-5.4-8.2-9.4-10.8c-4-2.6-8.5-4-13.4-4c-5,0-9.6,1.3-13.5,3.9c-3.9,2.6-7,6.3-9.3,10.8
				c-2.2,4.6-3.4,9.8-3.4,15.5c0,5.6,1.1,10.9,3.4,15.5C298.1,243.3,301.2,246.9,305.2,249.5z"/>
		</g>
	</g>
	<g>
		
			<image style="overflow:visible;opacity:0.75;" width="2576" height="4938" xlink:href="1BDE7F8F60A0C2BE.html"  transform="matrix(0.24 0 0 0.24 -25.5118 -25.5118)">
		</image>
		<g>
			<path class="st0" d="M0,0v1133.9h566.9V0H0z M493.8,236.1c-3.3-2.1-8.8-3.8-16.2-4.9c-20-2.9-30.2-12.5-30.2-28.4
				c0-5.8,1.6-11,4.6-15.3c3.1-4.3,7.3-7.6,12.5-9.9c5.2-2.2,11-3.4,17.4-3.4c5.7,0,11.1,0.9,16.1,2.6c5,1.7,9.3,4,12.7,6.9
				c2.9,2.3,4.4,5,4.4,8.2c0,2.4-0.9,4.6-2.7,6.4c-1.8,1.8-3.9,2.8-6.4,2.8c-1.6,0-3.2-0.5-4.5-1.5c-2.2-1.8-5.3-3.4-9.2-4.9
				c-3.9-1.5-7.4-2.2-10.5-2.2c-5.2,0-9.3,1-12,2.8c-2.6,1.8-3.9,4-3.9,6.9c0,3.3,1.3,5.7,4,7.3c3,1.8,7.7,3.4,14.2,4.6
				c7.6,1.3,13.9,3.1,18.5,5.2c4.8,2.2,8.4,5.2,10.9,9c2.4,3.8,3.7,8.8,3.7,15c0,5.9-1.7,11.1-5,15.5c-3.3,4.4-7.7,7.8-13.1,10.1
				c-5.4,2.3-11.2,3.5-17.4,3.5c-6.5,0-12.3-0.8-17.4-2.4c-5.1-1.6-10-4.5-14.4-8.4c-2.7-2.4-4.1-5.1-4.1-8.1c0-2.4,0.9-4.6,2.7-6.4
				c1.8-1.8,4-2.8,6.5-2.8c2,0,3.8,0.6,5.4,1.9c3.4,2.8,6.7,4.9,9.9,6.1c3.2,1.2,7,1.9,11.3,1.9c4.6,0,8.6-1,12-3.1
				c3.1-1.9,4.6-4.2,4.6-6.9C498.4,240.7,496.9,238,493.8,236.1z M414.3,185.1c0-2.7,1-5,2.8-6.8c1.9-1.8,4.3-2.7,7.1-2.7
				c2.6,0,4.9,0.9,6.7,2.7c1.9,1.8,2.8,4.1,2.8,6.8v76.3c0,2.7-1,5-3,6.8h0c-2,1.8-4.2,2.7-6.8,2.7c-2.8,0-5.1-0.9-6.9-2.8
				c-1.8-1.8-2.8-4.1-2.8-6.8V185.1z M396.3,302.1c3.3-3.4,7.2-6,11.6-7.9c4.4-1.9,9.2-2.8,14.3-2.8c6.2,0,12,1.4,17.1,4.3
				c5.1,2.8,9.3,6.8,12.3,11.8c3,5,4.6,10.6,4.6,16.6c0,8.8-2.6,15.9-7.7,21.1c-4.9,5-11.5,8.2-19.5,9.6v4.2c0,2.7-0.9,5-2.7,6.8
				c-1.8,1.8-4.1,2.8-6.8,2.8c-2.7,0-5-0.9-6.8-2.8c-1.8-1.8-2.7-4.1-2.7-6.8v-10c0-2.7,0.9-5,2.7-6.8l0,0c1.8-1.8,4.1-2.8,6.8-2.8
				c5.4,0,9.8-1.3,13.1-3.8c3.2-2.5,4.7-6.2,4.7-11.5c0-4-1.4-7.2-4.3-9.9c-2.9-2.7-6.5-4-10.9-4c-4.5,0-8.4,1.5-11.8,4.5
				c-2.4,2.2-4.9,3.3-7.6,3.3c-2,0-3.8-0.6-5.4-1.9c-2.6-2-4-4.5-4-7.4C393.4,306.2,394.4,304,396.3,302.1z M430.1,380.4v2.2
				c0,3-0.8,5.3-2.5,6.9c-1.6,1.7-4,2.5-6.9,2.5h-1.7c-3,0-5.3-0.8-6.9-2.5c-1.6-1.6-2.5-4-2.5-6.9v-2.2c0-3,0.8-5.3,2.5-6.9
				c1.7-1.7,4-2.5,6.9-2.5h1.7c3,0,5.3,0.8,6.9,2.5C429.2,375.1,430.1,377.4,430.1,380.4z M373.1,296.6c2.6,0,4.9,0.9,6.7,2.7
				c1.9,1.8,2.8,4.1,2.8,6.8v76.3c0,2.7-1,5-3,6.8c-2,1.8-4.2,2.7-6.8,2.7c-2.8,0-5.1-0.9-6.9-2.8c-1.8-1.8-2.8-4.1-2.8-6.8v-76.3
				c0-2.7,1-5,2.8-6.8C367.8,297.5,370.2,296.6,373.1,296.6z M278.3,198.6c3.9-7.5,9.5-13.5,16.5-17.8c7-4.4,15.1-6.6,23.8-6.6
				c8.8,0,16.8,2.2,23.8,6.6c7,4.3,12.6,10.3,16.6,17.8c4,7.5,6,15.8,6,24.7c0,8.9-2,17.2-6,24.7v0c-4,7.5-9.6,13.5-16.6,17.8
				c-7,4.4-15.1,6.6-23.8,6.6c-8.8,0-16.8-2.2-23.8-6.6c-7-4.3-12.6-10.3-16.5-17.8c-3.9-7.5-5.9-15.8-5.9-24.7
				S274.4,206,278.3,198.6z M348.3,377.5c1.3,1.7,1.9,3.6,1.9,5.8c0,2.7-1,5-3,6.8c-1.9,1.7-4.1,2.6-6.4,2.6c-3,0-5.6-1.4-7.7-4
				L310.8,359l-21.7,29.4c-2,2.9-4.7,4.3-7.8,4.3c-2.3,0-4.4-0.9-6.1-2.6c-1.7-1.7-2.6-3.7-2.6-5.9c0-2.3,0.8-4.4,2.3-6.3l24.8-33.5
				l-24.8-32.9c-1.3-1.6-2-3.5-2-5.7c0-2.6,1-4.9,3-6.8c2-1.9,4.2-2.8,6.6-2.8c3,0,5.6,1.4,7.7,4l22.1,29.3l21.5-28.7
				c1-1.4,2.2-2.5,3.5-3.2c1.4-0.8,2.8-1.2,4.2-1.2c2.3,0,4.4,0.9,6.2,2.8c1.8,1.8,2.7,3.9,2.7,6.1c0,2-0.7,3.9-2,5.7l-25.1,33
				L348.3,377.5z M268.4,383.4c0,2.7-0.9,5-2.7,6.7c-1.8,1.7-3.9,2.6-6.2,2.6c-1.9,0-3.7-0.6-5.2-1.8c-1.5-1.1-2.6-2.7-3.4-4.6
				l-6.5-15.1H207l-6.5,15.2c-0.7,1.9-1.8,3.4-3.3,4.5c-1.5,1.1-3.2,1.7-5,1.7c-2.7,0-4.8-0.8-6.3-2.3c-1.5-1.5-2.2-3.6-2.2-6.1
				c0-0.9,0.2-1.9,0.5-2.9l0.1-0.1l32.9-79c0.8-2,2.1-3.6,3.7-4.8c1.7-1.2,3.6-1.6,5.7-1.5c1.9,0,3.6,0.6,5.2,1.6
				c1.6,1.1,2.8,2.7,3.5,4.6l32.5,77.3C268.1,381,268.4,382.3,268.4,383.4z M182,185.1c0-2.7,1-5,2.8-6.8c1.9-1.8,4.3-2.7,7.1-2.7
				c2.6,0,4.9,0.9,6.7,2.7c1.9,1.8,2.8,4.1,2.8,6.8V214h39.1v-28.9c0-2.7,1-5,3-6.8c2-1.8,4.2-2.7,6.8-2.7c2.9,0,5.2,0.9,7,2.7l0,0
				c1.8,1.8,2.7,4.1,2.7,6.9v76.3c0,2.7-1,5-2.8,6.8c-1.9,1.8-4.3,2.7-7.1,2.7c-2.6,0-4.9-0.9-6.7-2.7c-1.9-1.8-2.8-4.1-2.8-6.8
				v-29.3h-39.1v29.3c0,2.7-1,5-3,6.8c-2,1.8-4.2,2.7-6.8,2.7c-2.8,0-5.1-0.9-6.9-2.8c-1.8-1.8-2.8-4.1-2.8-6.8V185.1z M181.4,312.2
				c2.6,4.7,3.9,10,3.9,15.6c0,5.5-1.3,10.7-3.9,15.5c-2.6,4.8-6,8.6-10.3,11.4c-4.3,2.8-8.9,4.3-13.6,4.3H136v23.5
				c0,2.8-0.8,5.1-2.5,6.8c-1.7,1.8-3.9,2.7-6.6,2.7c-2.6,0-4.8-0.9-6.5-2.8c-1.7-1.8-2.5-4.1-2.5-6.8v-76.3c0-2.7,0.9-5,2.8-6.8
				c1.8-1.8,4.1-2.8,6.8-2.8h30.1c4.8,0,9.4,1.4,13.6,4.3l0,0C175.4,303.7,178.8,307.5,181.4,312.2z M52.9,178
				c2.1-1.9,4.4-2.8,7-2.8c2,0,3.9,0.5,5.6,1.6c1.7,1.1,2.9,2.6,3.5,4.5l18.4,55.9l15.6-37.5c0.8-1.9,2-3.3,3.6-4.4
				c1.6-1.1,3.4-1.6,5.4-1.5c2-0.1,3.8,0.4,5.3,1.5c1.5,1.1,2.7,2.5,3.5,4.4l14.7,37l18.3-55.4c0.6-1.9,1.8-3.5,3.6-4.6
				c1.7-1.1,3.6-1.6,5.6-1.6c2.5,0,4.8,1,6.9,2.8l0,0c2.1,1.9,3.2,4.4,3.2,7.3c0,0.9-0.2,1.9-0.4,3l-26,76.7
				c-0.6,1.8-1.8,3.3-3.4,4.3c-1.5,1-3.3,1.6-5.1,1.7c0,0,0,0,0,0c-1.9,0-3.7-0.5-5.4-1.5c-1.6-1-2.9-2.5-3.9-4.5l-17.4-39.6
				l-17.5,39.6c-0.9,2-2.2,3.5-3.9,4.5c-1.6,1-3.4,1.5-5.3,1.5c-1.9-0.1-3.6-0.7-5.2-1.7c-1.6-1.1-2.7-2.5-3.4-4.3l-26-76.6
				c-0.3-1.2-0.5-2.2-0.5-3.1C49.7,182.3,50.8,179.9,52.9,178z M283.5,1091.3c-133.1,0-240.9-107.9-240.9-240.9
				s107.9-240.9,240.9-240.9s240.9,107.9,240.9,240.9S416.5,1091.3,283.5,1091.3z"/>
		</g>
	</g>
</g>
</svg>
